<?xml version="1.0" encoding="utf-8"?>
<!-- Generator: Adobe Illustrator 22.0.0, SVG Export Plug-In . SVG Version: 6.00 Build 0)  -->
<svg version="1.1" id="Layer_1" xmlns="http://www.w3.org/2000/svg" xmlns:xlink="http://www.w3.org/1999/xlink" x="0px" y="0px"
	 viewBox="0 0 387 487" style="enable-background:new 0 0 387 487;" xml:space="preserve">
<style type="text/css">
	.st0{fill:#FFFFFF;}
	.st1{fill:#DADADA;}
</style>
<g>
	<path class="st0" d="M26.5,468.8h9.9H72h47.9c23.5,0,43.9-6,61.4-17.9c17.5-11.9,30.8-27.7,40-47c9.2-19.3,13.8-39.7,13.8-61
		c-0.1-22.1-4.7-42.8-14-62.2c-9.3-19.3-22.6-34.9-40-46.6c-17.3-11.7-37.3-17.7-59.7-17.7H72H47.3H26.5 M89.3,433.7l-39.9,9.7
		c-0.8,0.1-1.3-0.5-1-1.3L63.2,405c0.3-0.6-0.4-1.4-1-1.3l-19.9,4.8c-0.5,0.1-1-0.1-1.2-0.6l-1.7-7c-0.1-0.5,0.1-1,0.6-1.2l38.8-9.3
		c0.8-0.1,1.4,0.5,1,1.3L64.6,429c-0.3,0.6,0.4,1.4,1,1.3l21.4-5.2c0.5-0.1,1,0.1,1.2,0.6l1.7,6.9C90,433.1,89.8,433.5,89.3,433.7z
		 M143.1,399.5l-54.8,10.9c-1,0.3-1.8-0.8-1.4-1.8l22.2-49.6c0.4-0.9-0.4-1.9-1.4-1.8l-27.4,5.5c-0.6,0.1-1.3-0.3-1.4-1l-1.9-9.7
		c-0.1-0.6,0.3-1.3,1-1.4l53.5-10.6c1-0.3,1.8,0.8,1.4,1.8l-23,50.1c-0.4,0.9,0.4,1.9,1.4,1.8l29.6-6c0.6-0.1,1.3,0.3,1.4,1l1.9,9.5
		C144.2,398.7,143.8,399.4,143.1,399.5z M215.8,331.2l-73.1,32.7c-1.3,0.6-2.9-0.5-2.5-1.9l15.3-76.5c0.3-1.4-1.2-2.6-2.5-1.9
		l-36.6,16.1c-0.9,0.4-1.9,0-2.3-0.9l-5.8-13c-0.4-0.9,0-1.9,0.9-2.3l71.3-31.9c1.3-0.6,2.9,0.5,2.5,2.1l-16.2,77.1
		c-0.3,1.4,1.2,2.6,2.5,2.1l39.3-17.7c0.9-0.4,1.9,0,2.3,0.9l5.7,12.7C217.1,329.7,216.8,330.7,215.8,331.2z"/>
	<g>
		<path class="st0" d="M335.2,199.9c12.1-2.8,22.8-9.7,30.1-19.4c7.5-10,11.4-22.3,10.9-34.6c-0.4-12.3-5.2-24.3-13.3-33.7l0,0
			c-2.4-2.6-2.5-2.7-5.8-5.1c-0.9-0.7-2.1-1.5-3.7-2.7c-20-14.1-47.7-12.5-65.9,4c-5.7,5.1-6.4,13.3-1.6,18.9
			c4.9,5.7,12.8,6.5,18.9,1.7c1-0.8,2.1-1.6,3.1-2.4c5.6-4.1,12.6-5.6,19.6-4.3c7.3,1.4,13.8,5.7,17.8,12c3.7,5.7,4.9,13,3.2,20
			c-1.7,6.9-6,12.9-11.9,16.3c-8.7,5-17.4,5.2-26.5,0.6c-5.9-3-12.3-4.3-19-3.6c-10.9,1-18.5,7.4-24.4,13.5
			c-3.7,3.8-4.8,9.1-3.2,13.8c0.6,1.7,1.6,3.4,2.9,4.8c4.9,5.2,13,5.7,18.5,1.1c0.9-0.8,1.8-1.6,2.7-2.4c0.3-0.3,0.6-0.6,1-0.9
			c4.1-3.7,5.7-3.9,10.7-1.4C310.3,201.3,323,202.8,335.2,199.9z"/>
		<path class="st0" d="M301.5,32.1c23,14.5,32.7,42.9,23.2,68.6c-9.2,24.9-35.8,40-62.3,35.6c-7.1-1.2-9.7,0-13.4,6
			c-0.9,1.5-1.8,3-2.8,4.5c-3.7,5.6-11,7.3-16.7,3.9c-5.7-3.3-7.8-10.6-4.7-16.5c4.7-8.9,10.5-16.9,20.3-20.8
			c6.5-2.6,13.1-3.3,19.9-2c11.8,2.2,21.9-1,30.1-9.7c11.8-12.5,10.6-33.5-2.5-44.7c-13.9-11.9-34.8-10-45.6,4.1
			c-0.9,1.2-1.8,2.4-2.6,3.6c-4.1,5.8-11.3,7.2-17.2,3.5c-5.7-3.7-7.3-11.1-3.6-17.2c13.5-22.1,41.1-32.3,65.6-24
			C298.5,30.3,297.4,29.6,301.5,32.1z"/>
		<path class="st0" d="M216.7,96.8c7.5-9.9,11.3-22.1,10.6-34.2c-0.6-12.4-5.6-24.4-13.8-33.6c-8.3-9.2-19.6-15.3-31.8-17.2l0,0
			c-3.5-0.5-3.7-0.5-7.7-0.2c-1.1,0.1-2.6,0.2-4.6,0.3c-24.4,2-44.6,21.1-48,45.3c-1.1,7.6,3.6,14.3,10.9,15.5
			c7.5,1.3,14-3.3,15.6-10.8c0.3-1.2,0.5-2.6,0.9-3.9c1.7-6.7,6-12.4,12.2-15.9c6.4-3.6,14.2-4.5,21.3-2.2c6.5,2,12.1,6.9,15.3,13.3
			c3.2,6.4,3.7,13.7,1.3,20.1c-3.4,9.5-10,15.2-19.9,17.4c-6.5,1.5-12.2,4.6-16.9,9.4c-7.7,7.8-9.4,17.5-10.1,26
			c-0.4,5.3,2.2,10.1,6.4,12.6c1.6,1,3.4,1.6,5.3,1.8c7.1,0.9,13.6-4,14.9-11.1c0.2-1.2,0.4-2.4,0.5-3.6c0.1-0.4,0.1-0.8,0.2-1.3
			c0.8-5.5,1.9-6.6,7.3-8C198.5,113.8,209.2,106.8,216.7,96.8z"/>
		<path d="M220.9,164.4c10,6,13.1,18.6,7.1,28.6c-6,9.9-18.8,13.1-28.7,7.1c-9.7-5.9-12.8-18.6-7-28.5
			C198.3,161.6,211,158.4,220.9,164.4z M220.8,188.6c3.6-6,1.8-13.5-4.3-17.1c-5.9-3.5-13.3-1.7-16.9,4.2c-3.6,5.9-1.8,13.7,4,17.3
			C209.5,196.5,217.2,194.6,220.8,188.6z"/>
		<path d="M170.6,153.6c8.9,5.4,11.8,17.5,6.3,26.3c-5.5,8.9-17.2,11.7-26.1,6.3c-8.9-5.4-11.8-17.5-6.3-26.4
			C149.9,151,161.7,148.2,170.6,153.6z M155,179c4.9,3.1,11.5,1.6,14.7-3.3c3.2-4.9,1.6-11.8-3.3-14.9c-4.8-3.1-11.5-1.6-14.7,3.3
			C148.5,169,150,175.9,155,179z"/>
		<path d="M261.7,231c-5.5,9-17.1,12-26,6.6c-9-5.4-12-17.3-6.6-26.2c5.4-9,17.4-11.9,26.3-6.5C264.3,210.5,267.1,222.1,261.7,231z
			 M254.6,226.6c3-5,1.3-11.5-3.6-14.5c-5-3-11.8-1.3-14.8,3.8c-2.9,5-1.2,11.6,3.7,14.6C244.9,233.5,251.5,231.7,254.6,226.6z"/>
		<path class="st0" d="M220.8,188.6c-3.6,6-11.3,7.9-17.2,4.4c-5.9-3.6-7.7-11.3-4-17.3c3.6-5.9,11-7.7,16.9-4.2
			C222.6,175.1,224.5,182.6,220.8,188.6z"/>
		<path class="st0" d="M155,179c-5-3.1-6.5-10-3.3-14.9c3.2-4.9,9.8-6.4,14.7-3.3c5,3.1,6.5,10,3.3,14.9
			C166.5,180.6,159.9,182.1,155,179z"/>
		<path class="st0" d="M254.6,226.6c-3.1,5.2-9.7,6.9-14.7,3.8c-4.9-2.9-6.6-9.6-3.7-14.6c3-5.1,9.8-6.8,14.8-3.8
			C255.9,215.1,257.5,221.6,254.6,226.6z"/>
		<g>
			<g>
				<path class="st1" d="M205.3,174.4c1.2-2,2.9-3.6,4.7-4.7c-4.1,0-8.1,2.2-10.4,6c-3.6,5.9-1.8,13.7,4,17.3c2.5,1.5,5.4,2,8.1,1.7
					c-0.7-0.3-1.3-0.6-2-1C203.3,189.7,201.2,181.1,205.3,174.4z"/>
				<path class="st1" d="M254.9,111.3c0.2-0.1,0.4-0.3,0.5-0.4c-3.5,0.3-6.9,1.1-10.3,2.5c-9.9,4-15.6,11.9-20.3,20.8
					c-3.1,5.8-1.1,12.9,4.3,16.3C228.9,139.9,238.8,124.2,254.9,111.3z"/>
				<path class="st1" d="M255.3,31.5c4.8-3,9.6-5.4,14.4-7.3c-18.4,0.7-36,10.5-45.9,26.8c-3.2,5.2-2.5,11.5,1.5,15.4
					C229.3,54.2,240,41.1,255.3,31.5z"/>
			</g>
			<path class="st1" d="M243.5,213.6c1.6-1.3,3.3-2.1,5.1-2.5c-3.4-1.1-7.1-0.6-10.1,1.9c-4.6,3.8-5.2,10.6-1.4,15.1
				c1.6,2,3.8,3.2,6.1,3.7c-0.5-0.4-0.9-0.9-1.3-1.4C237.8,225.4,238.5,217.8,243.5,213.6z"/>
			<path class="st1" d="M299.6,170.9c0.2-0.1,0.4-0.2,0.6-0.2c-3-0.5-6.1-0.6-9.3-0.2c-9.2,1.2-15.8,6.6-21.6,13.2
				c-3.8,4.2-3.6,10.4,0.4,14.6C271.7,189.3,283.3,178.3,299.6,170.9z"/>
			<path class="st1" d="M143.7,31.3c2.7-4,5.7-7.7,8.9-10.9c-14.4,7-24.9,21-27.1,37.5c-0.7,5.3,2.1,10,6.6,11.8
				C131,58.5,134.9,44.3,143.7,31.3z"/>
			<path class="st1" d="M153.9,165.9c0.2-2,0.8-3.8,1.8-5.4c-3.2,1.6-5.4,4.7-5.8,8.5c-0.5,5.9,3.9,11.1,9.8,11.6
				c2.6,0.2,5-0.5,6.9-1.8c-0.6,0-1.3,0.1-1.9,0C158.2,178.2,153.3,172.4,153.9,165.9z"/>
			<path class="st1" d="M176.3,94.5c0.1-0.2,0.2-0.4,0.4-0.5c-3,1.3-6.1,2.7-8.8,4.8c-7.7,6.3-10.7,13.4-12.1,24.7
				c-0.9,7.4,2.8,12,8.7,13.3C161.2,127.3,165.5,110.5,176.3,94.5z"/>
		</g>
		<path d="M128,30c2.1-2.3,4.2-4.7,6.5-6.8c26.9-25.6,69.3-20.6,89.5,10.7c0.3,0.5,0.6,0.9,0.9,1.4c24.9-21.7,52-26.3,81.1-9.6
			c20.4,11.7,34.2,37.1,29.9,65.6c4.1,1.7,8.3,3.1,12.3,5.1c11.4,5.6,19.8,14.2,25.6,25.4c1.5,3,1.1,5.3-1.2,6.5
			c-2.4,1.3-4.7,0.4-6.3-2.7c-6.9-13.3-17.8-21.8-31.9-25.7c-3.4,6.7-6.7,13.1-9.7,18.9c4.4,2,9.4,3.5,13.7,6.2
			c11.9,7.8,15.4,23.9,8.5,36.8c-6.5,12.1-22.2,17.9-35,12.8c-2.5-1-4.9-2.3-7.5-3c-10.6-3-20.2-1-28.7,6c-2,1.6-3.8,3.5-5.7,5.3
			c-4.4,4.4-4.6,10.8-0.4,15.2c4,4.2,10.4,4.3,15,0.2c1.5-1.3,2.8-2.7,4.2-4c3.4-3.1,6.8-3.6,11-1.7c24.5,11.4,52.4,2.7,65.5-20.5
			c4.7-8.3,6.7-17.4,6.2-27c-0.1-1.3-0.2-3.2,0.6-4c1.1-1.1,3-1.9,4.5-1.8c2.1,0.1,3,2,3.1,4c0.6,8.4-0.5,16.6-3.4,24.6
			c-0.7,1.8-1.3,3.6-2,5.4c-1.9,3.2-3.9,6.4-5.8,9.5c-2.2,2.3-4.3,4.9-6.7,7c-18.9,16.7-40.1,20.5-63.5,11.1c-2.4-0.9-4-1.1-5.7,1
			c-1,1.3-2.3,2.4-3.6,3.4c-7.8,6.3-19.2,5.4-25.9-2c-6.7-7.4-6.7-18.9,0.5-26c3.9-3.8,7.9-7.7,12.6-10.4c11.7-6.8,24-7.1,36.2-1.3
			c9.6,4.5,20.2,1.9,26.2-6.6c5.4-7.7,4.4-18.8-2.6-25.5c-5.5-5.3-12.1-7-19.5-5.1c-1.2,0.3-2.4,1-3.4,1.8
			c-15.5,12.3-33,17.1-52.7,13.9c-2.1-0.3-3.2,0.2-4.3,2c-1.8,2.9-3.5,6-5.9,8.4c-7,7.2-18.6,8.1-26.5,2.3
			c-8.6-6.3-11.4-17.4-6.4-26.7c4-7.5,8.5-14.6,15.6-19.6c10.3-7.3,21.6-9.7,34.1-7.4c11.3,2,21-3.2,25.8-13.4
			c4.7-10,0.9-22.8-8.7-28.8c-9.7-6.1-23-4.1-30,4.5c-1.6,1.9-2.8,4.2-4.5,6c-4.1,4.6-9.3,6.9-15.5,7c-0.9,0-1.8,0-2.8,0
			c-2.2,8.1-5.4,15.7-10.8,22.1c-2.5,3-5.2,5.8-8,8.5c-2.3,2.2-4.9,2.1-6.6,0c-1.6-1.9-1.2-4.3,1.2-6.3c7.6-6.6,12.8-14.8,15.7-24.5
			c0.5-1.8,0.4-2.8-1.3-4.1c-8.8-6.6-10.7-18.5-4.4-28.1c1.8-2.7,1.8-4.6,0.1-7.3c-11-17.5-31.7-26.7-51.8-22.7
			c-20.8,4.1-36.5,20.3-39.8,41.1c-1.1,6.7,2.5,12,8.5,13.1c6.1,1,11.3-2.8,12.4-9.5c3.3-20.5,26-30.3,42.6-20.3
			c10,6,15.5,17.2,13.8,28.6c-1.6,11.4-9.9,20.8-21.2,23.6c-7.9,1.9-14.5,5.6-19.4,12.1c-5.1,6.8-6.5,14.7-6.4,22.9
			c0.1,5.1,4.6,9,9.8,9.3c5.1,0.3,9.8-3,10.9-8c0.5-2.2,0.7-4.6,1.1-6.9c0.7-4.4,3-7.3,7.4-8.3c1.9-0.5,3.7-1.1,5.6-1.5
			c2.5-0.6,4.6,0.6,5.2,2.9c0.6,2.1-0.5,4.1-2.8,5.1c-0.3,0.1-0.5,0.2-0.8,0.3c-5.2,0.4-6.8,3.3-7.4,8.4
			c-1.2,10.8-10.9,17.8-21.4,16.3c-10.4-1.5-17.5-10.8-16-21.4c0.7-5.4,1.6-10.9,3.6-15.9c4.9-12.3,14.4-19.7,27.2-22.9
			c9.1-2.3,15.1-8.7,16.2-17.3c1.4-10.7-6-20.7-16.7-22.4c-10.8-1.8-21,5.3-23.1,16.1c-0.9,5-2.6,9.4-6.6,12.8
			c-5.8,5.1-14.2,6.2-20.8,2.8c-7.5-3.8-11.8-11.1-10.5-19.2c0.8-5.3,1.9-10.6,4.1-15.5C123.4,37.5,125.3,32.8,128,30z M301.5,32.1
			c-4.5-2.1-7.9-3.7-12-5.1c-24.6-8.3-52.2,1.8-65.6,24c-3.7,6.1-2.2,13.5,3.6,17.2c5.9,3.8,13.1,2.3,17.2-3.5
			c0.9-1.2,1.7-2.4,2.6-3.6c10.7-14.1,31.7-16,45.6-4.1c13.1,11.2,14.3,32.2,2.5,44.7c-8.2,8.7-18.3,11.9-30.1,9.7
			c-6.8-1.3-13.5-0.6-19.9,2c-9.9,4-15.6,11.9-20.3,20.8c-3.1,5.9-1,13.2,4.7,16.5c5.7,3.3,13,1.6,16.7-3.9c1-1.5,1.9-3,2.8-4.5
			c3.7-6.1,6.3-7.2,13.4-6c26.5,4.5,53-10.7,62.3-35.6C334.1,75,324.4,46.6,301.5,32.1z"/>
	</g>
	<path class="st1" d="M195.3,431.5c-17.3,13.4-37.9,20.8-62.1,22.3l-49.3,3L47.4,459l-7.5,0.5l-2.3-37.4l-8.4-119.7v130.1v36.4h7.3
		H72h47.9c23.5,0,43.9-6,61.4-17.9c17.5-11.9,30.8-27.7,40-47c0.1-0.2,0.2-0.4,0.3-0.6C214.5,414,205.7,423.4,195.3,431.5z"/>
	<path d="M229,277.6c-10.1-20.7-24.5-37.4-43-49.7c-18.7-12.6-40.4-18.9-64.4-18.9H26.1c-2.5,0-4.6,2.1-4.6,4.6v54.1
		c0,2.5,2.1,4.6,4.6,4.6s4.6-2.1,4.6-4.6v-46.5v-2.9h2.9h87.9c22.2,0,42.1,5.8,59.3,17.4c17.1,11.4,30.5,26.9,39.8,46.1
		c9.2,18.9,13.9,39.7,14.1,61.8c0,21.2-4.6,41.6-13.8,60.7c-9.2,19.2-22.6,34.8-39.8,46.5c-17.5,11.9-37.5,17.6-61,17.6H33.7h-2.9
		v-2.9V307.1c0-2.5-2.1-4.6-4.6-4.6s-4.6,2.1-4.6,4.6v165.8c0,2.5,2.1,4.6,4.6,4.6h94c25.1,0,47.3-6.5,66.2-19.2
		c18.6-12.6,33.1-29.4,43-50.1c9.8-20.3,14.7-42.1,14.7-64.7C243.9,319.9,238.8,297.8,229,277.6z"/>
</g>
</svg>
