<?xml version="1.0" encoding="utf-8"?>
<!-- Generator: Adobe Illustrator 22.0.0, SVG Export Plug-In . SVG Version: 6.00 Build 0)  -->
<svg version="1.1" id="Layer_1" xmlns="http://www.w3.org/2000/svg" xmlns:xlink="http://www.w3.org/1999/xlink" x="0px" y="0px"
	 viewBox="0 0 793.7 226.8" style="enable-background:new 0 0 793.7 226.8;" xml:space="preserve">
<style type="text/css">
	.st0{fill:#FFFFFF;}
</style>
<g>
	<g>
		<g>
			<polygon class="st0" points="206.6,179.4 223,179.4 223,167.5 206.6,167.5 206.6,162.1 225.8,162.1 225.8,150.2 190,150.2 
				189.9,196.6 227.7,196.6 227.7,184.7 206.6,184.7 			"/>
			<polygon class="st0" points="282.1,172.7 267.3,150.2 251.4,150.2 251.4,196.6 267.3,196.6 267.3,173.9 282.1,196.6 297.9,196.6 
				297.9,150.2 282.1,150.2 			"/>
			<polygon class="st0" points="319.8,162.5 332.8,162.5 332.8,196.6 349.4,196.6 349.4,162.5 362.3,162.5 362.3,150.2 319.8,150.2 
							"/>
			<polygon class="st0" points="399.3,179.4 415.8,179.4 415.8,167.5 399.3,167.5 399.3,162.1 418.5,162.1 418.5,150.2 382.8,150.2 
				382.7,196.6 420.5,196.6 420.5,184.7 399.3,184.7 			"/>
			<path class="st0" d="M482.7,175.6c1.5-2.4,2.2-5.1,2.3-8.1c0-3.2-0.9-6.1-2.5-8.7c-1.6-2.6-4-4.7-7.2-6.3
				c-3.1-1.6-6.8-2.3-11.1-2.3h-3.5h-5.1H444v46.4h16.6V183l8.7,13.6H488l-11.4-15.1C479.2,179.9,481.2,178,482.7,175.6z
				 M466.9,171.7c-1,0.9-2.3,1.4-3.8,1.4h-2.4v-9.8h2.3c1.6,0,2.8,0.3,3.8,1.2c1,0.8,1.5,2,1.5,3.4
				C468.4,169.6,467.9,170.8,466.9,171.7z"/>
			<path class="st0" d="M538.9,152.5c-3-1.5-6.7-2.3-11-2.3h-3.4h-11.4h-5.2v46.4h16.6v-10.9c4.8-0.1,8.9-0.9,12.4-2.3
				c3.5-1.4,6.2-3.5,8.2-6.2c1.9-2.7,2.9-6,2.9-9.7c0-3.2-0.8-6.1-2.3-8.7C544.2,156.2,542,154.1,538.9,152.5z M530.9,171.7
				c-1,1-2.3,1.5-3.8,1.5h-2.5v-10.6h2.3c1.6,0,2.8,0.4,3.9,1.3c1,0.9,1.6,2,1.6,3.5C532.4,169.2,531.9,170.7,530.9,171.7z"/>
			<path class="st0" d="M609.3,175.6c1.5-2.4,2.2-5.1,2.3-8.1c0-3.2-0.9-6.1-2.5-8.7c-1.6-2.6-4-4.7-7.2-6.3
				c-3.1-1.6-6.8-2.3-11.1-2.3h-3.5h-5.1h-11.5v46.4h16.6V183l8.7,13.6h18.7l-11.4-15.1C605.9,179.9,607.9,178,609.3,175.6z
				 M593.5,171.7c-1,0.9-2.3,1.4-3.8,1.4h-2.4v-9.8h2.3c1.6,0,2.8,0.3,3.8,1.2c1,0.8,1.5,2,1.5,3.4
				C595.1,169.6,594.6,170.8,593.5,171.7z"/>
			<rect x="635.6" y="150.2" class="st0" width="16.6" height="46.4"/>
			<path class="st0" d="M695.2,163.5c0.7-0.2,1.5-0.3,2.3-0.3c2,0,3.9,0.4,5.6,1.2c1.7,0.8,2.7,1.9,3,3.2l15.6,0.1
				c-0.5-3.6-1.8-6.8-4.1-9.4c-2.2-2.6-5.1-4.7-8.6-6c-3.5-1.4-7.4-2.1-11.6-2.1c-3.5,0-6.8,0.5-9.9,1.5c-3.1,1-5.7,2.6-7.6,4.6
				c-2,2.1-3,4.6-3.1,7.6c0,4.4,1.7,7.9,5.2,10.4s8.8,4.2,15.7,5.1c2.4,0.3,4,0.7,5,1.2s1.4,1.1,1.2,2c-0.2,0.8-0.9,1.5-2.2,1.9
				c-1.2,0.4-2.8,0.5-4.6,0.3c-1.8-0.3-3.2-0.9-4.3-1.9s-1.8-2.2-2-3.6h-16.3c0.1,3.2,1.2,6.3,3.2,9.1s4.8,5.1,8.5,6.8
				c3.6,1.7,7.8,2.6,12.5,2.6c4.4,0,8.4-0.6,11.7-1.9c3.4-1.2,5.9-3,7.7-5.3s2.7-5,2.6-8c-0.1-4-1.8-7.2-5.2-9.7s-9.1-4.2-17.2-5.3
				l-0.8-0.1c-1.7-0.3-2.9-0.5-3.5-0.8c-0.6-0.2-1-0.7-1-1.2c0-0.4,0.2-0.8,0.6-1.2C694,164,694.5,163.7,695.2,163.5z"/>
			<polygon class="st0" points="760.7,184.7 760.7,179.4 777.2,179.4 777.2,167.5 760.7,167.5 760.7,162.1 779.9,162.1 779.9,150.2 
				744.1,150.2 744.1,196.6 781.8,196.6 781.8,184.7 			"/>
		</g>
		<path class="st0" d="M163.2,63.1c-7.2-14.9-17.4-26.9-30.8-35.9c-13.3-9-28.7-13.6-46-13.6h-38h-19h-14v27.7V180v28H21h27.4h36.9
			c18.1,0,33.8-4.6,47.3-13.8s23.7-21.3,30.8-36.2s10.6-30.6,10.6-47C173.9,94,170.4,78,163.2,63.1z M61.7,180.9L31,188.4
			c-0.6,0.1-1-0.4-0.8-1l11.4-28.6c0.2-0.5-0.3-1.1-0.8-1l-15.3,3.7c-0.4,0.1-0.8-0.1-0.9-0.5l-1.3-5.4c-0.1-0.4,0.1-0.8,0.5-0.9
			l29.9-7.2c0.6-0.1,1.1,0.4,0.8,1l-11.8,28.8c-0.2,0.5,0.3,1.1,0.8,1l16.5-4c0.4-0.1,0.8,0.1,0.9,0.5l1.3,5.3
			C62.3,180.5,62.1,180.8,61.7,180.9z M103.2,154.6L61,163c-0.8,0.2-1.4-0.6-1.1-1.4L77,123.4c0.3-0.7-0.3-1.5-1.1-1.4l-21.1,4.2
			c-0.5,0.1-1-0.2-1.1-0.8l-1.5-7.5c-0.1-0.5,0.2-1,0.8-1.1l41.2-8.2c0.8-0.2,1.4,0.6,1.1,1.4l-17.7,38.6c-0.3,0.7,0.3,1.5,1.1,1.4
			l22.8-4.6c0.5-0.1,1,0.2,1.1,0.8l1.5,7.3C104,154,103.7,154.5,103.2,154.6z M159.2,102l-56.3,25.2c-1,0.5-2.2-0.4-1.9-1.5
			l11.8-58.9c0.2-1.1-0.9-2-1.9-1.5L82.7,77.7c-0.7,0.3-1.5,0-1.8-0.7l-4.5-10c-0.3-0.7,0-1.5,0.7-1.8L132,40.6
			c1-0.5,2.2,0.4,1.9,1.6l-12.5,59.4c-0.2,1.1,0.9,2,1.9,1.6l30.3-13.6c0.7-0.3,1.5,0,1.8,0.7l4.4,9.8
			C160.2,100.8,159.9,101.6,159.2,102z"/>
		<path class="st0" d="M267.1,50.4c-3.8-8-9.3-14.4-16.5-19.3c-7.1-4.9-15.4-7.3-24.7-7.3h-23.2h-6.4H190V128h2.4h10.3h22.6
			c9.7,0,18.1-2.5,25.3-7.4c7.2-4.9,12.7-11.4,16.5-19.4s5.7-16.4,5.7-25.2C272.9,66.9,271,58.4,267.1,50.4z M256.8,94.2
			c-2.8,6.6-6.8,11.9-12.1,16c-5.3,4-11.6,6.1-18.8,6.1h-23.1V35.4h21.6c11,0,19.6,3.4,25.9,10.2c6.2,6.8,9.7,16,10.3,27.7
			C260.7,80.7,259.5,87.6,256.8,94.2z"/>
		<path class="st0" d="M353.9,127.9l-44.5-41.1c12,0,21.2-2.9,27.7-8.7c6.5-5.8,9.7-13.5,9.7-23.2c0-5.8-1.5-11.1-4.5-15.8
			s-7.3-8.5-13-11.3c-5.6-2.8-12.3-4.1-20-4h-18.9h-6.6h-6V128h12.6V84.7l46,43.3L353.9,127.9L353.9,127.9z M290.5,76.7V35.4h18.3
			c7.6,0,13.6,1.6,17.9,4.6c4.3,3.1,6.7,8,7.1,14.8c0.2,6.8-1.9,12.1-6.4,16c-4.4,3.9-10.7,5.8-18.8,5.8L290.5,76.7L290.5,76.7z"/>
		<path class="st0" d="M355.8,23.7h66.9L422.5,36h-54.6v34.2h48.4l-0.2,12.9h-48.3V115h54.7v12.9h-66.9V23.7H355.8z"/>
		<path class="st0" d="M464.2,23.7h16l38.7,104.2h-14.1l-8.1-22.6h-49.3l-8.2,22.6h-14.5L464.2,23.7z M492.3,93l-20.1-56.1L451.8,93
			H492.3z"/>
		<path class="st0" d="M533.2,46.7V128h-12.3V23.7h14.7l37.5,86.1l42.3-86.1H629v104.2h-12.6V45.8l-39,82.2h-9.7L533.2,46.7z"/>
		<path class="st0" d="M634.9,23.7h66.9L701.6,36H647v34.2h48.4l-0.2,12.9h-48.3V115h54.7v12.9h-66.9V23.7H634.9z"/>
		<path class="st0" d="M781.8,127.9l-44.5-41.1c12,0,21.2-2.9,27.7-8.7c6.5-5.8,9.7-13.5,9.7-23.2c0-5.8-1.5-11.1-4.5-15.8
			s-7.3-8.5-13-11.3c-5.6-2.8-12.3-4.1-20-4h-18.9h-6.6h-6V128h12.6V84.7l46,43.3L781.8,127.9L781.8,127.9z M718.4,76.7V35.4h18.3
			c7.6,0,13.6,1.6,17.9,4.6c4.3,3.1,6.7,8,7.1,14.8c0.2,6.8-1.9,12.1-6.4,16c-4.4,3.9-10.7,5.8-18.8,5.8L718.4,76.7L718.4,76.7z"/>
	</g>
</g>
</svg>
